<svg width="19.000000" height="22.000000" viewBox="0 0 19 22" fill="none" xmlns="http://www.w3.org/2000/svg" xmlns:xlink="http://www.w3.org/1999/xlink">
	<desc>
			Created with Pixso.
	</desc>
	<defs/>
	<path id="Rectangle 199" d="M0 5.23L18.85 5.23L18.85 18C18.85 20.2 17.06 22 14.85 22L4 22C1.78 22 0 20.2 0 18L0 5.23Z" fill="#C4C4C4" fill-opacity="0" fill-rule="evenodd"/>
	<path id="Rectangle 199" d="M18.85 5.23L18.85 18C18.85 20.2 17.06 22 14.85 22L4 22C1.78 22 0 20.2 0 18L0 5.23L18.85 5.23ZM17.05 7.03L17.05 18C17.05 19.21 16.07 20.2 14.85 20.2L4 20.2C2.78 20.2 1.8 19.21 1.8 18L1.8 7.03L17.05 7.03Z" fill="#FFFFFF" fill-opacity="1.000000" fill-rule="evenodd"/>
	<path id="Rectangle 200" d="M4.33 10.47L4.33 4Q4.33 3 4.72 2.09Q5.09 1.21 5.76 0.53Q6.44 -0.15 7.32 -0.52Q8.23 -0.9 9.23 -0.9L9.61 -0.9Q10.61 -0.9 11.52 -0.52Q12.4 -0.15 13.08 0.53Q13.75 1.21 14.13 2.09Q14.51 3 14.51 4L14.51 10.47L12.71 10.47L12.71 4Q12.71 3.36 12.47 2.79Q12.23 2.23 11.8 1.8Q11.37 1.37 10.82 1.14Q10.25 0.9 9.61 0.9L9.23 0.9Q8.6 0.9 8.03 1.14Q7.47 1.37 7.04 1.8Q6.61 2.23 6.37 2.79Q6.13 3.36 6.13 4L6.13 10.47L4.33 10.47Z" fill="#FFFFFF" fill-opacity="1.000000" fill-rule="evenodd"/>
</svg>
