<svg width="36.000000" height="36.000000" viewBox="0 0 36 36" fill="none" xmlns="http://www.w3.org/2000/svg" xmlns:xlink="http://www.w3.org/1999/xlink">
	<desc>
			Created with Pixso.
	</desc>
	<defs/>
	<rect id="Component 2" width="36.000000" height="36.000000" fill="#FFFFFF" fill-opacity="0"/>
	<circle id="Ellipse 32" cx="18.000000" cy="18.000000" r="18.000000" fill="#4B7EE8" fill-opacity="1.000000"/>
	<path id="Vector" d="M11.62 15.52C10.73 15.52 10 16.25 10 17.15L10 22.36C10 23.26 10.73 24 11.62 24L13.58 24C13.95 24 14.29 23.87 14.56 23.66L14.56 15.52L11.62 15.52Z" fill="#FFFFFF" fill-opacity="1.000000" fill-rule="nonzero"/>
	<path id="Vector" d="M25.65 17.96C25.65 17.57 25.5 17.2 25.23 16.94C25.53 16.6 25.68 16.16 25.64 15.69C25.57 14.86 24.82 14.21 23.94 14.21L19.91 14.21C20.11 13.61 20.43 12.5 20.43 11.6C20.43 10.19 19.23 9 18.48 9C17.8 9 17.31 9.38 17.29 9.39C17.21 9.45 17.17 9.55 17.17 9.65L17.17 11.86L15.29 15.93L15.21 15.97L15.21 22.96C15.75 23.21 16.42 23.34 16.84 23.34L22.83 23.34C23.54 23.34 24.16 22.86 24.31 22.2C24.38 21.86 24.34 21.52 24.19 21.22C24.67 20.98 25 20.49 25 19.92C25 19.69 24.94 19.47 24.84 19.27C25.32 19.02 25.65 18.53 25.65 17.96Z" fill="#FFFFFF" fill-opacity="1.000000" fill-rule="nonzero"/>
</svg>
