<svg width="36.000000" height="36.000000" viewBox="0 0 36 36" fill="none" xmlns="http://www.w3.org/2000/svg" xmlns:xlink="http://www.w3.org/1999/xlink">
	<desc>
			Created with Pixso.
	</desc>
	<defs/>
	<rect id="Component 1" width="36.000000" height="36.000000" fill="#FFFFFF" fill-opacity="0"/>
	<circle id="Ellipse 32" cx="18.000000" cy="18.000000" r="18.000000" fill="#F53B49" fill-opacity="1.000000"/>
	<path id="%" d="M14.2 16.7C13.74 16.7 13.32 16.63 12.92 16.49C12.54 16.33 12.2 16.12 11.91 15.87C11.62 15.62 11.4 15.32 11.23 14.97C11.07 14.62 11 14.25 11 13.86C11 13.46 11.07 13.09 11.23 12.74C11.4 12.39 11.62 12.09 11.91 11.84C12.2 11.59 12.54 11.39 12.92 11.25C13.32 11.09 13.74 11.01 14.2 11.01C14.64 11.01 15.06 11.09 15.44 11.25C15.84 11.39 16.18 11.59 16.47 11.84C16.76 12.09 16.98 12.39 17.15 12.74C17.32 13.09 17.4 13.46 17.4 13.86C17.4 14.25 17.32 14.62 17.15 14.97C16.98 15.32 16.76 15.62 16.47 15.87C16.18 16.12 15.84 16.33 15.44 16.49C15.06 16.63 14.64 16.7 14.2 16.7ZM14.2 15.08C14.44 15.08 14.64 14.96 14.81 14.72C14.98 14.48 15.06 14.19 15.06 13.86C15.06 13.52 14.98 13.23 14.81 12.99C14.64 12.75 14.44 12.63 14.2 12.63C13.96 12.63 13.76 12.75 13.59 12.99C13.42 13.23 13.33 13.52 13.33 13.86C13.33 14.19 13.42 14.48 13.59 14.72C13.76 14.96 13.96 15.08 14.2 15.08ZM21.92 24.15C21.46 24.15 21.04 24.08 20.64 23.94C20.26 23.78 19.92 23.58 19.64 23.33C19.35 23.07 19.12 22.77 18.95 22.42C18.8 22.08 18.72 21.71 18.72 21.31C18.72 20.91 18.8 20.54 18.95 20.19C19.12 19.84 19.35 19.54 19.64 19.29C19.92 19.04 20.26 18.84 20.64 18.7C21.04 18.54 21.46 18.46 21.92 18.46C22.37 18.46 22.78 18.54 23.16 18.7C23.56 18.84 23.9 19.04 24.19 19.29C24.48 19.54 24.71 19.84 24.87 20.19C25.04 20.54 25.12 20.91 25.12 21.31C25.12 21.71 25.04 22.08 24.87 22.42C24.71 22.77 24.48 23.07 24.19 23.33C23.9 23.58 23.56 23.78 23.16 23.94C22.78 24.08 22.37 24.15 21.92 24.15ZM21.92 22.53C22.16 22.53 22.37 22.41 22.53 22.17C22.7 21.93 22.78 21.65 22.78 21.31C22.78 20.97 22.7 20.69 22.53 20.45C22.37 20.2 22.16 20.08 21.92 20.08C21.68 20.08 21.48 20.2 21.31 20.45C21.14 20.69 21.06 20.97 21.06 21.31C21.06 21.65 21.14 21.93 21.31 22.17C21.48 22.41 21.68 22.53 21.92 22.53ZM12.51 22.8L17.6 17.06L22.12 11L23.61 12.34L18.73 17.91L14 24.15L12.51 22.8Z" fill="#FFFFFF" fill-opacity="1.000000" fill-rule="nonzero"/>
</svg>
