<svg width="36.000000" height="36.000000" viewBox="0 0 36 36" fill="none" xmlns="http://www.w3.org/2000/svg" xmlns:xlink="http://www.w3.org/1999/xlink">
	<desc>
			Created with Pixso.
	</desc>
	<defs/>
	<rect id="Component 3" width="36.000000" height="36.000000" fill="#FFFFFF" fill-opacity="0"/>
	<circle id="Ellipse 32" cx="18.000000" cy="18.000000" r="18.000000" fill="#2FC509" fill-opacity="1.000000"/>
	<path id="NEW" d="M10.26 14.99L12.43 14.99L12.43 23L10.62 23L7.73 18.79L7.68 18.79L7.68 23L5.51 23L5.51 14.99L7.36 14.99L10.2 19.18L10.26 19.18L10.26 14.99ZM19.21 23L13.46 23L13.46 14.99L19.23 14.99L19.23 16.75L15.64 16.75L15.64 18.12L18.93 18.12L18.93 19.87L15.64 19.87L15.64 21.24L19.21 21.24L19.21 23ZM24.42 23L22.34 23L19.98 14.99L22.4 14.99L23.5 19.92L23.56 19.92L24.85 14.99L26.76 14.99L28.06 19.93L28.12 19.93L29.21 14.99L31.64 14.99L29.28 23L27.2 23L25.84 18.53L25.78 18.53L24.42 23Z" fill="#FFFFFF" fill-opacity="1.000000" fill-rule="evenodd"/>
</svg>
