<svg width="21" height="25" fill="none" xmlns="http://www.w3.org/2000/svg"><g opacity=".7"><path d="M0 5.83h21V20.5c0 2.2-1.79 4-4 4H4c-2.22 0-4-1.8-4-4V5.83z"/><path d="M21 5.83V20.5c0 2.2-1.79 4-4 4H4c-2.22 0-4-1.8-4-4V5.83h21zm-1.81 1.8V20.5c0 1.21-.98 2.19-2.19 2.19H4c-1.22 0-2.2-.98-2.2-2.19V7.63h17.39z" fill="#FFF" fill-rule="evenodd"/><path d="M4.93 11.66V4q0-1 .39-1.91.37-.88 1.05-1.56.67-.68 1.55-1.05.91-.38 1.91-.38h1.33q1 0 1.91.38.88.37 1.56 1.05.67.68 1.05 1.56.38.91.38 1.91v7.66h-1.8V4q0-.64-.24-1.21-.24-.56-.67-.99-.43-.43-.98-.66Q11.8.9 11.16.9H9.83q-.63 0-1.21.24-.55.23-.98.66-.43.43-.67.99-.24.57-.24 1.21v7.66h-1.8z" fill="#FFF" fill-rule="evenodd"/></g></svg>