<svg width="24" height="19" fill="none" xmlns="http://www.w3.org/2000/svg"><path d="M22.07.95c-2.61-2.6-6.86-2.6-9.47 0l-.6.61-.61-.61c-2.61-2.6-6.86-2.6-9.47 0-2.55 2.56-2.57 6.61-.03 9.43 2.31 2.57 9.12 8.12 9.41 8.36.2.16.44.23.67.23H12c.24.01.48-.07.69-.23.29-.24 7.1-5.79 9.41-8.36 2.54-2.82 2.52-6.87-.03-9.43zm-1.54 8.01c-1.8 2.01-6.76 6.14-8.53 7.6-1.79-1.46-6.74-5.59-8.54-7.6C1.69 7 1.67 4.2 3.42 2.45c.9-.89 2.06-1.33 3.24-1.33 1.17 0 2.34.44 3.23 1.33l1.33 1.34c.16.16.36.25.57.28.34.08.71-.02.97-.28l1.34-1.34c1.78-1.78 4.68-1.78 6.47 0C22.32 4.2 22.3 7 20.53 8.96z" fill="#FFF" opacity=".7"/></svg>