<svg width="280" height="29" fill="none" xmlns="http://www.w3.org/2000/svg"><path d="M167.31 11.51h-9.86l1.82-3.32h9.85l-1.81 3.32zm5-7.74h-11.9l-8.58 15.76h-3.01L159.21.45h14.9l-1.8 3.32zm-2.45 15.76h-3L177.25.45h3.02l-10.41 19.08zm28.22-15.76h-6.78l-8.6 15.76h-2.97l8.58-15.76h-6.83l1.81-3.32h16.6l-1.81 3.32zm11.6 14.11c-.66 1.23-1.38 1.84-2.14 1.84-.55 0-.97-.38-1.24-1.15l-4.37-12.28-7.21 13.24h-2.99l9.49-17.42c.24-.47.57-.85.97-1.18.4-.32.79-.48 1.19-.48.55 0 .95.33 1.19.98l4.39 12.27L216.17.45h3l-9.49 17.43zm21.66-6.37h-9.85l1.81-3.32h9.85l-1.81 3.32zm-3.57 8.02h-14.92L223.25.45h14.91l-1.81 3.32h-11.89l-6.79 12.42h11.91l-1.81 3.34zm25.01-5.89c-.99 1.8-2.35 3.24-4.11 4.35-1.67 1.02-3.35 1.54-5.01 1.54H230.5l1.81-3.34h13.17c.81 0 1.64-.19 2.46-.6.99-.51 1.7-1.18 2.16-2.05.47-.84.47-1.51.02-1.97-.38-.39-.98-.6-1.8-.6h-8.14c-1.5 0-2.5-.44-3.02-1.36-.54-.98-.36-2.29.52-3.9.87-1.61 2.1-2.89 3.72-3.89 1.52-.9 3.03-1.37 4.51-1.37h13.01l-1.79 3.32h-13.02c-.58 0-1.15.18-1.76.54-.6.35-1.05.83-1.38 1.42-.34.62-.4 1.1-.17 1.42.22.35.62.5 1.19.5h8.13c1.67 0 2.78.54 3.31 1.59.55 1.12.35 2.57-.65 4.4zm21.07 0c-.98 1.8-2.35 3.24-4.11 4.35-1.67 1.02-3.35 1.54-5 1.54h-13.17l1.81-3.34h13.17c.81 0 1.64-.19 2.47-.6.98-.51 1.69-1.18 2.16-2.05.46-.84.46-1.51.01-1.97-.38-.39-.98-.6-1.79-.6h-8.15c-1.5 0-2.5-.44-3.02-1.36-.54-.98-.36-2.29.52-3.9.88-1.61 2.1-2.89 3.73-3.89 1.52-.9 3.02-1.37 4.5-1.37H280l-1.8 3.32h-13.01c-.59 0-1.16.18-1.76.54-.61.35-1.06.83-1.38 1.42-.35.62-.4 1.1-.18 1.42.23.35.63.5 1.2.5h8.12c1.68 0 2.78.54 3.32 1.59.55 1.12.34 2.57-.66 4.4z" fill="#AF4642"/><path d="M68.15 26.25c0 .72-.22 1.34-.64 1.82-.43.5-.98.73-1.64.73h-2.52v-5.01h2.52c.68 0 1.21.23 1.64.69.43.44.64 1.04.64 1.77zm-.79.07c0-.48-.14-.88-.42-1.19-.27-.3-.63-.46-1.07-.46h-1.74v3.26h1.74c.44 0 .8-.15 1.07-.46.28-.28.42-.67.42-1.15zm6.56 2.48h-.8v-5.01h.8v5.01zm10.09-1.54c0 .46-.15.85-.46 1.13-.28.27-.64.41-1.09.41h-3.43v-.87h3.43c.23 0 .41-.05.57-.17.17-.13.26-.31.26-.54 0-.21-.09-.38-.28-.51a.943.943 0 00-.55-.16h-2.12c-.38 0-.71-.11-.97-.34-.29-.27-.43-.62-.43-1.04 0-.42.14-.75.43-1.02.26-.23.59-.36.97-.36h3.4v.88h-3.4c-.14 0-.28.04-.38.14-.11.09-.16.21-.16.38 0 .15.05.27.16.36.1.1.24.14.38.14h2.12c.45 0 .81.13 1.09.42.31.29.46.67.46 1.15zm8.95-2.59h-1.77v4.13h-.77v-4.13h-1.78v-.88h4.32v.88zM103 28.8h-1.17l-1.26-1.4h-1.7v-.87h2.11c.29 0 .54-.07.74-.21.23-.17.33-.4.33-.71 0-.63-.34-.94-1.07-.94h-2.57v4.13h-.78v-5.01h3.23c.59 0 1.05.15 1.4.42.41.33.62.79.62 1.4 0 .42-.12.79-.36 1.1-.21.26-.52.48-.9.57L103 28.8zm5.85 0h-.79v-5.01h.79v5.01zm10.32-1.46c0 .21-.05.42-.14.61-.29.56-.84.85-1.65.85h-3.23v-5.01h3.23c.78 0 1.31.27 1.62.8.12.22.17.45.17.7 0 .4-.15.74-.46 1.03.31.27.46.62.46 1.02zm-.76-2.07c0-.21-.1-.37-.32-.48-.18-.08-.37-.14-.59-.14h-2.56v3.26h2.56c.22 0 .41-.03.57-.09.24-.12.34-.27.34-.46 0-.21-.1-.37-.34-.48-.18-.08-.36-.12-.57-.12h-2.11v-.86h2.11c.22 0 .41-.06.59-.13.22-.12.32-.29.32-.5zm10.86 1.28c0 .81-.22 1.4-.66 1.77-.39.32-.95.48-1.7.48h-.26c-.76 0-1.33-.16-1.71-.48-.43-.37-.66-.96-.66-1.77v-2.76h.79v2.76c0 .6.2 1 .56 1.19.24.14.67.19 1.28.19.51 0 .87-.09 1.12-.27.29-.21.45-.57.45-1.11v-2.76h.79v2.76zm9.22-1.88h-1.78v4.13h-.78v-4.13h-1.77v-.88h4.33v.88zm5.66 4.13h-.8v-5.01h.8v5.01zm10.95-2.55c0 .72-.2 1.34-.63 1.82-.43.5-.97.73-1.62.73h-1.26c-.66 0-1.2-.23-1.63-.73-.43-.48-.64-1.1-.64-1.82 0-.73.21-1.33.62-1.77.44-.46.99-.69 1.65-.69h1.26c.65 0 1.2.23 1.63.69.42.44.62 1.04.62 1.77zm-.77.07c0-.48-.14-.88-.41-1.19-.28-.3-.64-.46-1.07-.46h-1.26c-.43 0-.8.16-1.07.46-.28.31-.42.71-.42 1.19s.14.87.42 1.15c.27.31.64.46 1.07.46h1.26c.43 0 .79-.15 1.07-.46.27-.28.41-.67.41-1.15zm10.13 2.05c0 .31-.09.48-.29.48-.14 0-.31-.09-.49-.3l-2.88-3.23v3.48h-.79v-4.57c0-.11.03-.21.08-.31.07-.07.14-.13.26-.13.14 0 .3.09.45.27l2.88 3.2v-3.47h.78v4.58zm6.06 0c0 .14-.04.25-.1.33-.09.08-.18.12-.3.12s-.21-.04-.29-.12c-.07-.08-.1-.19-.1-.33 0-.13.03-.23.1-.3.08-.1.17-.14.29-.14.12 0 .21.04.3.14.06.07.1.17.1.3zm10.56.43h-1.17l-1.26-1.4h-1.69v-.87h2.12c.27 0 .52-.07.72-.21.23-.17.33-.4.33-.71 0-.63-.34-.94-1.05-.94h-2.57v4.13h-.8v-5.01h3.23c.59 0 1.06.15 1.42.42.39.33.6.79.6 1.4 0 .42-.12.79-.36 1.1-.21.26-.52.48-.88.57l1.36 1.52zm8.61-2.09h-2.57v-.89h2.57v.89zm.21 2.09h-3.88v-5.01h3.88v.88h-3.1v3.26h3.1v.87zm9.15-4.13h-1.78v4.13h-.77v-4.13h-1.78v-.88h4.33v.88zm10.53 4.13h-1l-.76-1.4h-2.14l.48-.87h1.19l-.78-1.44-2.03 3.71h-1l2.43-4.53c.07-.12.15-.21.26-.33.14-.09.26-.15.36-.15.1 0 .23.04.35.15.1.1.19.21.25.33l2.39 4.53zm5.5 0h-.77v-5.01h.77v5.01zm8.96 0h-3.88v-5.01h.79v4.14h3.09v.87zm5.59-.43c0 .14-.03.25-.12.33a.37.37 0 01-.29.12c-.1 0-.21-.04-.28-.12-.09-.08-.12-.19-.12-.33 0-.13.03-.23.12-.3.07-.1.18-.14.28-.14.12 0 .22.04.29.14.09.07.12.17.12.3zm9.98.43h-2.54c-.65 0-1.21-.23-1.62-.73-.43-.48-.66-1.1-.66-1.82 0-.73.23-1.33.64-1.77.43-.46.97-.69 1.64-.69h2.54v.88h-2.54c-.43 0-.79.16-1.07.46-.27.31-.41.71-.41 1.19s.14.87.41 1.15c.28.31.64.46 1.07.46h2.54v.87zm8.65 0h-3.89v-5.01h.78v4.14h3.11v.87zm9.85-2.25c0 .81-.22 1.4-.65 1.77-.38.32-.95.48-1.69.48h-.28c-.76 0-1.31-.16-1.71-.48-.43-.37-.64-.96-.64-1.77v-2.76h.78v2.76c0 .6.19 1 .57 1.19.24.14.65.19 1.28.19.49 0 .87-.09 1.12-.27.29-.21.43-.57.43-1.11v-2.76h.79v2.76zm10.22.79c0 .21-.05.42-.14.61-.29.56-.85.85-1.66.85h-3.22v-5.01h3.22c.78 0 1.32.27 1.63.8.12.22.17.45.17.7 0 .4-.15.74-.47 1.03.32.27.47.62.47 1.02zm-.76-2.07c0-.21-.11-.37-.33-.48a1.34 1.34 0 00-.58-.14h-2.56v3.26h2.56c.22 0 .41-.03.57-.09.23-.12.34-.27.34-.46 0-.21-.11-.37-.34-.48-.18-.08-.37-.12-.57-.12h-2.11v-.86h2.11c.22 0 .41-.06.58-.13.22-.12.33-.29.33-.5zm10.61 1.99c0 .46-.15.85-.46 1.13-.28.27-.64.41-1.09.41h-3.44v-.87h3.44c.22 0 .42-.05.57-.17.17-.13.28-.31.28-.54 0-.21-.11-.38-.3-.51a.92.92 0 00-.55-.16h-2.12c-.38 0-.71-.11-.97-.34-.29-.27-.43-.62-.43-1.04 0-.42.14-.75.43-1.02.26-.23.59-.36.97-.36h3.4v.88h-3.4c-.14 0-.28.04-.38.14-.11.09-.16.21-.16.38 0 .15.05.27.16.36.1.1.24.14.38.14h2.12c.45 0 .81.13 1.09.42.31.29.46.67.46 1.15zM0 .21h13.03l15.82 28.68H15.8L0 .21zm15.32 0h13.05L44.2 28.89H31.15L15.32.21z" fill="#FFF"/><path d="M30.61.21h29.12l-5.02 8.75H35.43L30.61.21zm17.63 20.03h-6.7l-5.01-9.1h16.92l-5.21 9.1z" fill="#B44843"/><path d="M72.75 19.01L62.32.01l3.57.02 7.82 14.07 2.05-3.63L70.03.01l3.56.02 7.7 13.86L88.93 0l3.63.01c-3.54 6.39-7.03 12.69-10.49 19h-1.56l-2.97-5.31c-1.03 1.86-2 3.58-2.97 5.31h-1.82zm12.13 0L95.39.03l17.54-.02-1.82 3.15-.6-.02H97.24L90.12 16h13.81l-1.67 3.01H84.88zm40.68 0L136 0l3.61.01-8.87 16.01h13.46l-1.83 2.99h-16.81zm-19.92 0l4.76-8.69L115.72.7l.4-.7 3.57.01L110.85 16h13.33l-1.73 3.01h-16.81z" fill="#FEFEFE"/><path d="M95.08 11.05l1.6-3.09 11.51.04-1.74 3.07-11.37-.02z" fill="#FEFEFE"/></svg>