<svg width="40" height="40" fill="none" xmlns="http://www.w3.org/2000/svg"><defs><clipPath id="a"><path fill="#fff" fill-opacity="0" d="M0 0h40v40H0z"/></clipPath></defs><path d="M0 0h40v40H0z"/><g clip-path="url(#a)"><path d="M40 20c0-6.52-5.29-11.88-11.88-11.88-2.84 0-5.41.97-7.48 2.65 1.55 1.48 2.77 3.35 3.36 5.48h-.97c-.65-1.87-1.68-3.55-3.1-4.9-1.42 1.35-2.45 3.03-3.1 4.9h-.96c.64-2.13 1.8-4 3.35-5.48-2.06-1.68-4.58-2.65-7.42-2.65C5.28 8.12 0 13.48 0 20c0 6.51 5.28 11.87 11.87 11.87 2.84 0 5.41-1.04 7.41-2.65-1.54-1.48-2.7-3.35-3.35-5.48h.97c.64 1.87 1.68 3.55 3.1 4.9 1.41-1.35 2.51-3.03 3.09-4.9h.97c-.65 2.13-1.81 4-3.35 5.48 2.06 1.68 4.64 2.65 7.48 2.65C34.71 31.87 40 26.51 40 20z" fill="#858FA4"/><path d="M31.28 22.77l.84-4.39h1.04l.12.45c.2-.19.52-.45 1.16-.45l-.32 1.16c-.32 0-.84-.06-1.22 1.23l-.39 2h-1.23zm-15.8-5.48h1.16l-.26 1.16h.65l-.2.9h-.58l-.32 1.74c-.06.32 0 .65.65.52l-.13.97c-.26.19-.58.19-.9.19-.26 0-1.17-.19-.97-1.36l.9-4.12zm5.16 3.54c.13-.71.45-2.45-1.61-2.45-1.94 0-2.2 1.94-2.2 2.2-.06.25-.06 2.19 2 2.19.52 0 1.23-.06 1.55-.19l.2-.91c-.2.07-.84.13-1.36.13-.45 0-1.22 0-1.1-.97h2.52zm-6.32-1.42l.26-.9c-.58-.19-1.03-.19-1.16-.19-.2 0-1.62 0-1.81 1.03-.19.84.13 1.16.39 1.29.45.19.71.39.96.52.33.13.26.64-.13.64-.19 0-.96.07-1.54-.13l-.2.91c.58.13.97.13 1.42.13.32 0 1.74.06 1.94-1.23.13-.65-.2-.9-.39-1.1-.26-.13-.58-.38-.84-.45-.26-.13-.45-.52 0-.64.2.06.78.06 1.1.12zm-7.75 3.36l1.04-5.29h-2L4.19 20.7l-.26-3.22H2.06l-1.03 5.29h1.16l.77-3.81.32 3.81h1.1l1.68-3.74-.71 3.74h1.22zm1.36-4.26l-.19.97c.32 0 1.09-.13 1.48-.13.39 0 .9-.06.71.58-.32 0-2.45-.32-2.77 1.55-.13.9.64 1.35 1.22 1.35s.78-.13.97-.25l.13.25h1.1l.45-2.38c.13-.58.32-2-1.68-2-.26-.07-.64-.07-1.42.06zm19.29.19c-.32-.19-.51-.19-.9-.19s-1.29.39-1.42 1.42c-.19 1.29.64 1.87 1.87 1.48l.32 1.1c-.38.2-.77.26-1.42.26-1.22 0-2.58-1.1-2-3.36.45-1.61 1.87-2.25 2.71-2.19.97.07 1.36.39 1.62.71l-.78.77zm10.13.2c-.26-.2-.39-.52-.91-.52-.64 0-1.67-.13-2.25 1.87-.39 1.36.38 2.52 1.22 2.52.39 0 .78-.19 1.03-.32l.13.32h1.3l1.03-5.55h-1.23l-.32 1.68z" fill="#1A1A25"/><path d="M28.06 18.51l-.19.97c.32 0 1.09-.13 1.48-.13.39 0 .84-.06.71.58-.32 0-2.45-.32-2.77 1.55-.13.9.64 1.35 1.22 1.35s.78-.13.97-.25l.13.25h1.1l.45-2.38c.13-.58.32-2-1.68-2-.19-.07-.65-.07-1.42.06z" fill="#1A1A25"/><path d="M18.12 20h1.49c.06-.46-.07-.78-.52-.78-.51 0-.84.26-.97.78zm-8.38.83c-.19 0-.65-.12-1.03.13-.39.26-.52.71-.07.84.39.13.91-.13 1.03-.51l.07-.46zm27.22-.12c.13-.39.07-.91-.06-1.1-.39-.52-1.23-.13-1.49.84-.19.64.2 1.09.59 1.09.44 0 .7-.32.96-.83zm-7.03.12c-.19 0-.65-.12-1.03.13-.39.26-.52.71-.07.84.39.13.97-.13 1.04-.51l.06-.46z" fill="#858FA4"/><path d="M20.64 22.77l.84-4.32h1.03l.13.45c.19-.2.52-.45 1.16-.45l-.32 1.16c-.26 0-.84-.07-1.23 1.22l-.38 2h-1.23v-.06z" fill="#1A1A25"/><path d="M11.87 8.12c-5.23 0-9.68 3.42-11.23 8.13H16c.64-2.13 1.8-4 3.35-5.48-2.13-1.61-4.71-2.65-7.48-2.65zM20 11.41a11.679 11.679 0 00-3.1 4.91h6.19c-.65-1.87-1.68-3.55-3.09-4.91zm8.12-3.29c-2.84 0-5.41.97-7.48 2.65 1.55 1.48 2.71 3.35 3.36 5.48h15.35c-1.48-4.71-5.94-8.13-11.23-8.13z" fill="#858FA4"/></g></svg>