<svg width="30" height="32" fill="none" xmlns="http://www.w3.org/2000/svg"><defs><clipPath id="a"><path fill="#fff" fill-opacity="0" d="M0 0h30v32H0z"/></clipPath></defs><path d="M0 0h30v32H0z"/><g clip-path="url(#a)" fill="#858FA4"><path d="M19.8 17.86l2.34-2.11 2.12 2.34-2.35 2.11-2.11-2.34zm-5.45 2.6l3.13-2.81 2.81 3.13-3.12 2.81-2.82-3.13zm10.46-4.05L26.37 15l1.4 1.56-1.56 1.41-1.4-1.56zM15.64 8.2l2.34-2.1 2.11 2.34-2.34 2.11-2.11-2.35zm7.17 3.55l1.56-1.41 1.41 1.56-1.56 1.41-1.41-1.56zm-10.67 3.3l3.12-2.81 2.81 3.12-3.12 2.82-2.81-3.13zM9.9 9.73l3.13-2.82 2.81 3.13-3.13 2.81L9.9 9.73zm7.89 3.19l2.34-2.11 2.12 2.34-2.34 2.11-2.12-2.34zm3.01-5.81l1.56-1.4 1.41 1.56-1.56 1.4-1.41-1.56zm1.06 15.48l2.35-2.11 2.11 2.35-2.34 2.11-2.12-2.35z" fill-rule="evenodd"/><path d="M20.1 23.14l-3.06 2.82-5.15-5.74 1.43-1.27-3.61-4.04 1.45-1.26-3.67-4.04 5.72-5.15 1.81 1.99 3.07-2.74 1.81 1.88 1.21-1.08a13.139 13.139 0 00-6.57-1.76C7.3 2.75 1.4 8.65 1.4 15.89c0 7.23 5.9 13.13 13.14 13.13 2.35 0 4.56-.62 6.47-1.71.63-.36 1.2-.75 1.73-1.15l-2.64-3.02z"/></g></svg>