<svg width="55" height="20" fill="none" xmlns="http://www.w3.org/2000/svg"><defs><clipPath id="a"><path fill="#fff" fill-opacity="0" d="M0 0h54.118v20H0z"/></clipPath></defs><path d="M0 0h54.118v20H0z"/><g clip-path="url(#a)" fill="#858FA4"><path d="M10.54 4.04c-.19-.39-.5-.71-.88-.95-.39-.24-.86-.41-1.39-.51-.54-.09-1.17-.14-1.89-.15l-3.35.01c-.34 0-.68.27-.77.61l-2.25 9.8c-.08.33.14.61.49.61h1.6c.35 0 .69-.27.77-.61l.55-2.38c.07-.33.41-.61.77-.61h.45c1.96 0 3.48-.4 4.57-1.2 1.1-.8 1.64-1.86 1.64-3.18 0-.57-.1-1.06-.31-1.44zm-3.46 3.2c-.48.36-1.16.53-2.02.53h-.4c-.34 0-.56-.27-.48-.61l.48-2.08c.07-.33.42-.61.76-.61h.53c.61 0 1.08.11 1.39.31.31.2.47.53.46.96.01.65-.23 1.15-.72 1.5zm11.18-1.8c-.6-.34-1.55-.51-2.86-.51-.65 0-1.29.05-1.94.15-.48.07-.52.09-.82.15-.61.13-.7.74-.7.74l-.2.81c-.11.51.18.49.31.45.27-.08.41-.16.96-.28.52-.12 1.06-.21 1.5-.2.64 0 1.13.06 1.45.2.33.14.49.38.49.73l-.03.23-.23.14c-.91.06-1.57.14-2.36.26-.78.1-1.47.29-2.03.55-.62.27-1.07.63-1.39 1.09-.3.46-.45 1.02-.45 1.68 0 .62.22 1.13.65 1.52.43.39 1 .58 1.69.58.43-.01.77-.04 1-.1l.78-.26.66-.37.6-.4.01.01-.06.26-.01.01c-.06.32.13.57.43.6l.01.01h1.49l.02-.01c.32-.04.62-.29.69-.6l1.16-5.05.07-.42.02-.38c.01-.72-.3-1.25-.91-1.59zm-2.58 5.68l-.25.33-.63.33c-.3.12-.58.18-.84.18-.39 0-.7-.06-.91-.17l-.31-.6c0-.33.08-.59.24-.79l.68-.46c.28-.1.64-.18 1.05-.24l1.18-.13.12.2c-.03.11-.23.97-.33 1.35zm31.69-5.67c-.61-.34-1.57-.52-2.87-.52-.64 0-1.29.05-1.93.16-.49.07-.53.08-.83.15-.61.13-.7.74-.7.74l-.2.8c-.11.52.18.5.32.46.26-.08.41-.16.95-.29.51-.11 1.06-.2 1.5-.2.64 0 1.13.07 1.46.21.32.14.48.38.48.72l-.03.23-.22.15c-.92.05-1.58.13-2.37.25-.78.11-1.46.3-2.03.56-.61.27-1.07.63-1.38 1.09-.31.46-.46 1.02-.46 1.67 0 .62.22 1.13.65 1.52.44.39 1 .58 1.69.58.43 0 .76-.03 1-.09l.78-.27.66-.36.6-.4.01.01-.06.26v.01c-.07.31.12.57.43.6h1.49l.02-.01a.8.8 0 00.68-.6l1.17-5.05.07-.41.03-.39c0-.72-.3-1.24-.91-1.58zm-2.58 5.68l-.26.33-.63.33c-.3.12-.58.18-.83.18-.41 0-.71-.06-.91-.18l-.32-.59c0-.33.08-.59.23-.79.16-.19.39-.35.69-.46.29-.1.64-.18 1.06-.24.36-.04 1.08-.13 1.17-.13l.11.2c-.01.11-.22.96-.31 1.35zm-5.15-7.06c-.2-.38-.5-.7-.89-.94-.38-.25-.85-.42-1.39-.51-.53-.1-1.16-.15-1.88-.15h-3.35c-.35.01-.69.28-.77.61l-2.25 9.81c-.08.33.14.61.48.61h1.61c.34 0 .69-.28.77-.61l.54-2.38c.08-.33.42-.61.77-.61h.46c1.96 0 3.48-.41 4.58-1.2 1.08-.81 1.62-1.87 1.62-3.19 0-.57-.1-1.05-.3-1.44zm-3.46 3.21c-.48.35-1.16.53-2.02.53h-.4c-.34 0-.57-.28-.49-.61l.49-2.08c.07-.33.41-.61.76-.61h.52c.62 0 1.08.1 1.39.31.32.2.47.53.47.95.01.65-.24 1.16-.72 1.51zm17.19-4.12c.08-.34-.13-.61-.48-.6h-1.43c-.3 0-.56.21-.69.48l-.08.13-.07.31-2.01 9.12-.06.28v.01c-.07.3.12.53.4.57l.03.03h1.48c.3 0 .57-.22.7-.49l.07-.12 2.15-9.72h-.01zM29.15 5.05c-.38.01-1.92 0-1.92 0-.35 0-.79.28-1.01.61 0 0-2.3 3.94-2.52 4.34l-.26-.01-.72-4.3c-.08-.34-.43-.63-.87-.63h-1.43c-.35 0-.56.28-.48.62 0 0 1.09 6.2 1.31 7.66.1.8-.02.95-.02.95l-1.42 2.47c-.21.33-.1.61.25.61h1.66c.35 0 .8-.28 1-.61l6.38-10.8s.62-.92.05-.91z"/></g></svg>