<svg width="22.000000" height="20.000000" viewBox="0 0 22 20" fill="none" xmlns="http://www.w3.org/2000/svg" xmlns:xlink="http://www.w3.org/1999/xlink">
	<desc>
			Created with Pixso.
	</desc>
	<defs>
		<clipPath id="clip1_1648">
			<rect id="search" width="21.427645" height="20.000000" transform="translate(0.000000 -0.500000)" fill="white" fill-opacity="0"/>
		</clipPath>
	</defs>
	<rect id="search" width="21.427645" height="20.000000" transform="translate(0.000000 -0.500000)" fill="#FFFFFF" fill-opacity="0"/>
	<g clip-path="url(#clip1_1648)">
		<path id="Vector" d="M12.44 17.1C10.55 17.1 8.7 16.46 7.21 15.3L2.51 20L1 18.48L5.69 13.78C4.53 12.29 3.89 10.45 3.89 8.55C3.89 3.83 7.73 0 12.44 0C17.16 0 21 3.83 21 8.55C21 13.26 17.16 17.1 12.44 17.1ZM12.44 2.13C8.91 2.13 6.03 5.01 6.03 8.55C6.03 12.08 8.91 14.96 12.44 14.96C15.98 14.96 18.86 12.08 18.86 8.55C18.86 5.01 15.98 2.13 12.44 2.13Z" fill="#858FA4" fill-opacity="0.700000" fill-rule="nonzero"/>
	</g>
</svg>
