<svg width="20" height="20" fill="none" xmlns="http://www.w3.org/2000/svg"><defs><clipPath id="a"><path transform="translate(0 -.5)" fill="#fff" fill-opacity="0" d="M0 0h20v20H0z"/></clipPath></defs><path d="M0-.5h20v20H0z"/><g clip-path="url(#a)"><path d="M10-.5C4.47-.5 0 3.97 0 9.5c0 5.52 4.47 10 10 10 5.52 0 10-4.48 10-10 0-5.53-4.48-10-10-10zm0 2.99a3.305 3.305 0 11-.01 6.61A3.305 3.305 0 0110 2.49zm-.01 14.39c-1.82 0-3.49-.66-4.78-1.76-.31-.27-.49-.66-.49-1.07 0-1.85 1.5-3.34 3.35-3.34h3.85c1.85 0 3.34 1.49 3.34 3.34 0 .41-.18.8-.49 1.07a7.302 7.302 0 01-4.78 1.76z" fill="#858FA4" fill-opacity=".7"/></g></svg>