<svg width="40" height="40" fill="none" xmlns="http://www.w3.org/2000/svg"><defs><clipPath id="a"><path fill="#fff" fill-opacity="0" d="M0 0h40v40H0z"/></clipPath></defs><path d="M0 0h40v40H0z"/><g clip-path="url(#a)" fill="#858FA4"><path d="M16.01 14.04l-2.03 11.93h3.25l2.03-11.93h-3.25zm-4.76.02l-3.18 8.13-.34-1.23c-.63-1.48-2.41-3.6-4.5-4.94l2.91 9.95 3.44-.01 5.12-11.91-3.45.01z"/><path d="M6.5 14.91c-.2-.73-.74-.94-1.42-.97H.04l-.04.24c3.92.95 6.51 3.24 7.59 6L6.5 14.91zm19.35 1.42c1.07-.02 1.84.22 2.44.46l.29.13.44-2.58c-.64-.24-1.65-.5-2.91-.5-3.21 0-5.48 1.62-5.5 3.93-.02 1.72 1.62 2.67 2.85 3.25 1.27.58 1.69.95 1.69 1.48-.01.79-1.01 1.16-1.95 1.16-1.3 0-1.99-.18-3.06-.62l-.42-.19-.46 2.67c.77.33 2.17.62 3.63.63 3.41 0 5.64-1.6 5.66-4.08.01-1.35-.85-2.39-2.73-3.23-1.14-.56-1.84-.93-1.83-1.48 0-.5.59-1.03 1.86-1.03zm11.51-2.27h-2.51c-.78 0-1.36.21-1.7.99l-4.83 10.93h3.41s.56-1.47.69-1.79h4.16c.1.42.4 1.79.4 1.79h3.01l-2.63-11.92zm-4.01 7.69c.27-.69 1.3-3.34 1.3-3.34-.02.03.26-.69.43-1.14l.22 1.03.75 3.45h-2.7z"/></g></svg>